<svg width="193" height="193" viewBox="0 0 193 193" fill="none" xmlns="http://www.w3.org/2000/svg">
<g clip-path="url(#clip0_4401_20)">
<rect x="8.84778" y="8.84778" width="175.304" height="175.304" rx="33.3913" fill="#595769"/>
<path d="M137.156 0.5V40.8421C126.007 44.9217 118.083 54.7283 116.401 66.47H76.5817C74.8993 54.7283 66.9756 44.9304 55.8266 40.8421V0.5H137.147H137.156ZM143.981 143.249H143.973C143.807 143.214 143.65 143.171 143.484 143.136C134.297 141.035 127.471 133.076 126.617 123.793C126.617 123.732 126.608 123.671 126.6 123.619C126.547 123.034 126.521 122.442 126.521 121.849V71.1511C126.521 70.5583 126.547 69.9655 126.6 69.3815C126.6 69.3205 126.6 69.2595 126.617 69.1984C127.463 59.9062 134.297 51.9476 143.502 49.8555C143.607 49.8293 143.711 49.8032 143.816 49.7858L143.999 49.7422C145.411 49.4545 146.875 49.2976 148.375 49.2976H192.491V143.694H148.375C146.867 143.694 145.402 143.537 143.981 143.249ZM49.0012 49.7422L49.1756 49.7858C49.2802 49.8119 49.3935 49.8381 49.4981 49.8642C58.6945 51.9563 65.5286 59.9236 66.3829 69.2072C66.3829 69.2682 66.3916 69.3292 66.4003 69.3902C66.4526 69.9743 66.4788 70.567 66.4788 71.1598V121.858C66.4788 122.45 66.4526 123.043 66.4003 123.627C66.4003 123.688 66.4003 123.749 66.3829 123.81C65.5373 133.094 58.7119 141.052 49.5155 143.153C49.3586 143.188 49.2017 143.232 49.0361 143.267H49.0187C47.5978 143.563 46.1246 143.711 44.6253 143.711H0.5V49.2976H44.6166C46.1159 49.2976 47.5804 49.4458 48.9925 49.7422H49.0012ZM76.9304 76.9304H116.07V116.07H76.9304V76.9304ZM0.5 37.5646C0.5 17.1233 17.1233 0.5 37.5646 0.5H45.3837V38.8634C45.1309 38.8634 44.8781 38.846 44.6253 38.846H0.5V37.5646ZM37.5646 192.5C17.132 192.5 0.5 175.877 0.5 155.435V154.154H44.6166C44.8694 154.154 45.1222 154.137 45.375 154.137V192.5H37.5558H37.5646ZM55.8441 192.5V152.158C66.9931 148.078 74.9168 138.272 76.5992 126.53H116.418C118.101 138.263 126.024 148.07 137.173 152.158V192.5H55.8353H55.8441ZM192.5 155.435C192.5 175.868 175.877 192.5 155.435 192.5H147.616V154.137C147.869 154.137 148.122 154.154 148.375 154.154H192.491V155.435H192.5ZM148.383 38.8372C148.131 38.8372 147.878 38.8547 147.625 38.8547V0.5H155.444C175.877 0.5 192.509 17.1233 192.509 37.5646V38.846H148.392L148.383 38.8372Z" fill="url(#paint0_linear_4401_20)"/>
</g>
<defs>
<linearGradient id="paint0_linear_4401_20" x1="21.3696" y1="13.0217" x2="171.63" y2="192.5" gradientUnits="userSpaceOnUse">
<stop stop-color="#EC9F23"/>
<stop offset="0.303913" stop-color="#FEE2B2"/>
<stop offset="0.470212" stop-color="#FEE2B2"/>
<stop offset="1" stop-color="#DBA02E"/>
</linearGradient>
<clipPath id="clip0_4401_20">
<rect width="192" height="192" fill="white" transform="translate(0.5 0.5)"/>
</clipPath>
</defs>
</svg>
