<svg width="22" height="16" viewBox="0 0 22 16" fill="none" xmlns="http://www.w3.org/2000/svg">
<path d="M21.1373 2.498C21.6154 4.28 21.6154 8 21.6154 8C21.6154 8 21.6154 11.72 21.1373 13.502C20.8716 14.487 20.0943 15.262 19.1099 15.524C17.322 16 11.1539 16 11.1539 16C11.1539 16 4.98888 16 3.19786 15.524C2.20924 15.258 1.433 14.484 1.17041 13.502C0.692322 11.72 0.692322 8 0.692322 8C0.692322 8 0.692322 4.28 1.17041 2.498C1.43614 1.513 2.21343 0.738 3.19786 0.476C4.98888 -1.78814e-07 11.1539 0 11.1539 0C11.1539 0 17.322 -1.78814e-07 19.1099 0.476C20.0985 0.742 20.8747 1.516 21.1373 2.498V2.498ZM9.06155 11.5L15.3385 8L9.06155 4.5V11.5Z" fill="#1F1E25"/>
</svg>
