<svg width="20" height="16" viewBox="0 0 20 16" fill="none" xmlns="http://www.w3.org/2000/svg">
<path d="M19.6913 1.89937C18.9538 2.22538 18.1717 2.43949 17.3708 2.53461C18.215 2.03012 18.8467 1.23616 19.1484 0.300674C18.3562 0.771788 17.4877 1.10195 16.5825 1.28055C15.9745 0.630434 15.1686 0.199271 14.29 0.0540959C13.4115 -0.0910793 12.5095 0.057867 11.7244 0.477779C10.9393 0.897691 10.3151 1.56504 9.94867 2.37608C9.58226 3.18712 9.49426 4.09641 9.69835 4.96259C8.09188 4.88212 6.52031 4.46495 5.08565 3.73814C3.651 3.01133 2.38534 1.99113 1.37085 0.743792C1.01175 1.36015 0.823046 2.06082 0.824055 2.77403C0.824055 4.17386 1.53701 5.41053 2.62094 6.13458C1.97948 6.1144 1.35214 5.94129 0.791209 5.62968V5.67988C0.791402 6.61216 1.11423 7.5157 1.70496 8.23728C2.29569 8.95886 3.11796 9.45408 4.03236 9.63898C3.43689 9.80024 2.81252 9.82401 2.2065 9.70849C2.46431 10.511 2.9668 11.2128 3.64361 11.7157C4.32042 12.2185 5.13767 12.4973 5.98092 12.513C5.14284 13.1707 4.18324 13.657 3.15699 13.9439C2.13074 14.2308 1.05797 14.3127 0 14.185C1.84683 15.3719 3.99671 16.002 6.19249 16C13.6244 16 17.6887 9.84751 17.6887 4.51175C17.6887 4.33797 17.6839 4.16227 17.6761 3.99043C18.4672 3.41908 19.15 2.71129 19.6923 1.90034L19.6913 1.89937Z" fill="#1F1E25"/>
</svg>
